<svg id="Layer_1" data-name="Layer 1" xmlns="http://www.w3.org/2000/svg" xmlns:xlink="http://www.w3.org/1999/xlink" viewBox="0 0 1070 219"><defs><style>.cls-1{font-size:86.33px;font-family:FranklinGothic-Demi, Franklin Gothic Demi;font-weight:300;}.cls-1,.cls-4{fill:#1e2d4e;}.cls-2{letter-spacing:-0.01em;}.cls-3{fill:#be985f;letter-spacing:0em;}.cls-5{fill:url(#linear-gradient);}.cls-6{fill:url(#linear-gradient-2);}.cls-7{fill:url(#linear-gradient-3);}.cls-8{fill:url(#linear-gradient-4);}</style><linearGradient id="linear-gradient" x1="131" y1="65.5" x2="204.73" y2="65.5" gradientTransform="translate(95.48 -99.52) rotate(45)" gradientUnits="userSpaceOnUse"><stop offset="0.01" stop-color="#ab8547"/><stop offset="1" stop-color="#f3d599"/></linearGradient><linearGradient id="linear-gradient-2" x1="234.28" y1="80.04" x2="264.19" y2="50.13" gradientTransform="translate(119.02 -157.17) rotate(45)" xlink:href="#linear-gradient"/><linearGradient id="linear-gradient-3" x1="130.81" y1="146.64" x2="204.55" y2="146.64" gradientTransform="translate(152.8 -75.62) rotate(45)" xlink:href="#linear-gradient"/><linearGradient id="linear-gradient-4" x1="214.89" y1="180.82" x2="282.27" y2="113.44" gradientTransform="translate(176.85 -132.68) rotate(45)" xlink:href="#linear-gradient"/></defs><text class="cls-1" transform="translate(334.28 133.53) scale(1.02 1)"><tspan class="cls-2">L</tspan><tspan x="42.87" y="0">UXE </tspan><tspan class="cls-3" x="221.47" y="0">VIP SUITE</tspan></text><path class="cls-4" d="M269.79,106.64c-34.62,6.51-55.43,26.59-61.68,62-6.43-35.19-27-55.71-62.13-61.89,34.77-6.2,55.62-26.24,62.16-61.07C214.53,80.44,235.25,100.4,269.79,106.64Z"/><ellipse class="cls-5" cx="167.87" cy="65.5" rx="47.64" ry="21.15" transform="translate(2.85 137.88) rotate(-45)"/><ellipse class="cls-6" cx="249.23" cy="65.09" rx="21.15" ry="47.64" transform="translate(26.98 195.3) rotate(-45)"/><ellipse class="cls-7" cx="167.68" cy="146.64" rx="21.15" ry="47.64" transform="translate(-54.58 161.52) rotate(-45)"/><ellipse class="cls-8" cx="248.58" cy="147.13" rx="47.64" ry="21.15" transform="translate(-31.23 218.87) rotate(-45)"/></svg>