<svg id="Layer_1" data-name="Layer 1" xmlns="http://www.w3.org/2000/svg" xmlns:xlink="http://www.w3.org/1999/xlink" viewBox="0 0 1070 219"><defs><style>.cls-1{font-size:86.33px;fill:#1e2d4e;font-family:FranklinGothic-Demi, Franklin Gothic Demi;font-weight:300;}.cls-2{letter-spacing:-0.01em;}.cls-3,.cls-4,.cls-5,.cls-6{fill:#be985f;}.cls-3{letter-spacing:-0.02em;}.cls-4{letter-spacing:-0.05em;}.cls-5{letter-spacing:-0.05em;}.cls-7{fill:url(#linear-gradient);}.cls-8{fill:url(#linear-gradient-2);}</style><linearGradient id="linear-gradient" x1="211.12" y1="175.54" x2="182.79" y2="52.81" gradientUnits="userSpaceOnUse"><stop offset="0.01" stop-color="#1e2d4e"/><stop offset="1" stop-color="#f3d599"/></linearGradient><linearGradient id="linear-gradient-2" x1="159.01" y1="140.21" x2="243.13" y2="140.21" gradientUnits="userSpaceOnUse"><stop offset="0.01" stop-color="#1e2d4e"/><stop offset="1" stop-color="#1e2d4e"/></linearGradient></defs><text class="cls-1" transform="translate(325.28 150.53) scale(1.02 1)"><tspan class="cls-2">L</tspan><tspan x="42.87" y="0">UXE </tspan><tspan class="cls-3" x="221.47" y="0">D</tspan><tspan class="cls-4" x="275.46" y="0">A</tspan><tspan class="cls-5" x="323.56" y="0">T</tspan><tspan class="cls-6" x="361.75" y="0">ABASE</tspan></text><path class="cls-7" d="M199.91,165.94a10.92,10.92,0,0,0,4.66-1.16q15.93-7.4,32-14.38a20.16,20.16,0,0,1,7.07-1.42c4.91-.2,9.83,0,14.74-.06a21.19,21.19,0,0,0,21.16-21.22c.15-11.89-8.58-21.15-20.57-21.83-.88,0-1.75-.17-2.91-.28,3.14-14.28.47-26.27-13.91-32.45-12.13-5.21-22.42-1.25-31.08,8.93-9.67-15.47-22.85-21.95-40-13.89-13.52,6.35-17,18.45-15.19,31.89-5.45-.13-10.84-1-16-.23-10.35,1.51-18.55,10.92-19.26,21-.86,12,5.45,22.74,15.79,26.17a42.94,42.94,0,0,0,10.63,1.65c2.56.17,3.66.9,3.71,3.64.15,8,0,8.17-8.2,7.43-17.85-1.61-31-14-33.45-32.15C107.19,113.33,114.89,96.74,132,90c3-1.17,6.31-1.33,9.33-2.39,1.4-.49,3.22-1.8,3.55-3.08,3.23-12.52,10.56-21.3,22.3-26.95,14.35-6.91,27.91-5.46,40.33,3.65,4.5,3.3,7.87,3.19,12.33,1.33,12.93-5.38,24.8-2.84,35.43,5.66,7.83,6.25,12,14.74,12.86,24.73a5.43,5.43,0,0,0,3.36,5c14.61,7.53,20.75,20,18,36.22-2.05,12-14.1,23.39-26.22,24.75a10.19,10.19,0,0,1-2.32.19c-15.87-2-29.42,4.69-43,11.32-4.64,2.26-9.41,4.26-14.06,6.47a8.88,8.88,0,0,1-4.36,1"/><path class="cls-8" d="M200.76,177.92a8.93,8.93,0,0,1-3.36-.88q-16.83-7.75-33.82-15.13c-3.28-1.42-4.7-3.26-4.57-7,.28-7.36,0-14.74,0-22.1,0-4.53.21-4.46,4.16-2.67q17.92,8.16,36,15.89a6.17,6.17,0,0,0,4.37-.16c8.54-3.66,17-7.4,25.44-11.39a5.42,5.42,0,0,0,2.7-4,5.44,5.44,0,0,0-2.77-3.89c-8.27-4-16.65-7.64-25-11.32a5.61,5.61,0,0,0-3.71-.53c-4,1.53-7.94,3.4-12,5.21,4.23,5.25,12.61,7.31,17.88,5.42a11.76,11.76,0,0,1,6.87.12c2.92.85,5.6,2.5,9.33,4.25-4,1.89-7.51,3.12-10.55,5.06-7.11,4.53-13.67,4.23-21.12.17-8.81-4.8-18.29-8.35-27.47-12.48a32.26,32.26,0,0,1-3.25-2c6.24-2.87,11.89-5.5,17.57-8.07,6.58-3,13.19-5.88,19.75-8.91,2.47-1.14,4.72-1.49,7.35-.26,11.68,5.48,23.4,10.88,35.19,16.11,2.57,1.14,3.46,2.68,3.37,5.33-.15,4-.15,8,0,12a4.47,4.47,0,0,1-3.05,4.75c-12.15,5.39-24.22,11-36.4,16.31a7,7,0,0,1-5,0c-7.63-3.17-15.13-6.63-22.69-10-1.38-.6-2.85-1-4.22-1.49-2.42,4.78-1.61,6.63,2.76,8.48,7.48,3.17,14.93,6.44,22.23,10a10.4,10.4,0,0,0,4.49,1.14"/></svg>