<svg id="Layer_1" data-name="Layer 1" xmlns="http://www.w3.org/2000/svg" xmlns:xlink="http://www.w3.org/1999/xlink" viewBox="0 0 279 219"><defs><style>.cls-1{fill:#1e2d4e;}.cls-2{fill:url(#linear-gradient);}.cls-3{fill:url(#linear-gradient-2);}.cls-4{fill:#232323;}.cls-5{fill:#dedee0;}.cls-6{fill:url(#linear-gradient-3);}.cls-7{fill:url(#linear-gradient-4);}.cls-8{fill:#49474c;}.cls-9{fill:#fff;}</style><linearGradient id="linear-gradient" x1="59.74" y1="130.23" x2="130.06" y2="59.91" gradientUnits="userSpaceOnUse"><stop offset="0.01" stop-color="#ab8547"/><stop offset="1" stop-color="#f3d599"/></linearGradient><linearGradient id="linear-gradient-2" x1="123.47" y1="80.35" x2="123.47" y2="91.14" gradientTransform="translate(1.8 9.22)" gradientUnits="userSpaceOnUse"><stop offset="0" stop-color="#747474"/><stop offset="0.08" stop-color="gray"/><stop offset="0.23" stop-color="#9f9f9f"/><stop offset="0.42" stop-color="#d2d2d2"/><stop offset="0.48" stop-color="#e0e0e0"/><stop offset="0.68" stop-color="#aaabac"/><stop offset="0.94" stop-color="#6d6e71"/></linearGradient><linearGradient id="linear-gradient-3" x1="69.07" y1="95.55" x2="118.85" y2="95.55" gradientUnits="userSpaceOnUse"><stop offset="0.01" stop-color="#c4b293"/><stop offset="1" stop-color="#e9dabd"/></linearGradient><linearGradient id="linear-gradient-4" x1="69.86" y1="95.55" x2="118.06" y2="95.55" xlink:href="#linear-gradient"/></defs><rect class="cls-1" x="141.36" y="164.24" width="24.46" height="26.21" rx="3"/><path class="cls-1" d="M215.46,71.63H151.12a11.51,11.51,0,0,0-11.51,11.52v66.08a11.51,11.51,0,0,0,11.51,11.51h64.34A11.51,11.51,0,0,0,227,149.23V83.15A11.51,11.51,0,0,0,215.46,71.63Zm-7.71,69.89H158.83V90.85h48.92Z"/><path class="cls-2" d="M137.55,78.59v33a27,27,0,0,1-27,27H79.28a27,27,0,0,1-27-27v-33a27,27,0,0,1,27-27h31.24A27,27,0,0,1,137.55,78.59Z"/><path class="cls-3" d="M123.39,89.57H125a2.14,2.14,0,0,1,2.14,2.14v6.51a2.14,2.14,0,0,1-2.14,2.14h-1.63a0,0,0,0,1,0,0V89.57a0,0,0,0,1,0,0Z" transform="translate(0.27 -0.35) rotate(0.16)"/><circle class="cls-1" cx="93.96" cy="95.55" r="31.09"/><circle class="cls-4" cx="93.96" cy="95.55" r="27.63"/><circle class="cls-5" cx="93.96" cy="95.55" r="25.69"/><circle class="cls-6" cx="93.96" cy="95.55" r="24.89"/><circle class="cls-7" cx="93.96" cy="95.55" r="24.1"/><circle class="cls-8" cx="93.96" cy="95.55" r="2.85"/><rect class="cls-8" x="88.55" y="84.28" width="1.97" height="13.26" transform="translate(-38.05 89.58) rotate(-44.84)"/><polygon class="cls-8" points="94.1 96.58 114.72 91.42 114.25 89.5 93.63 94.66 94.1 96.58"/><rect class="cls-9" x="93.68" y="71.46" width="1.35" height="5.6" transform="translate(0.21 -0.27) rotate(0.16)"/><rect class="cls-9" x="93.56" y="114.04" width="1.35" height="5.6" transform="matrix(1, 0, 0, 1, 0.33, -0.26)"/><rect class="cls-9" x="114.92" y="92.81" width="1.35" height="5.6" transform="translate(211.53 -19.71) rotate(90.16)"/><rect class="cls-9" x="72.33" y="92.69" width="1.35" height="5.6" transform="translate(168.7 22.76) rotate(90.16)"/><rect class="cls-9" x="108.64" y="107.85" width="1.35" height="5.6" transform="translate(264.84 112.04) rotate(135.16)"/><rect class="cls-9" x="78.61" y="77.65" width="1.35" height="5.6" transform="translate(192.23 81.6) rotate(135.16)"/><rect class="cls-9" x="78.52" y="107.76" width="1.35" height="5.6" transform="translate(56.63 244.69) rotate(-134.84)"/><rect class="cls-9" x="108.72" y="77.73" width="1.35" height="5.6" transform="translate(129.42 214.9) rotate(-134.84)"/><rect class="cls-9" x="101.62" y="73.02" width="1.35" height="5.6" transform="translate(35.99 -32.89) rotate(22.07)"/><rect class="cls-9" x="85.62" y="112.48" width="1.35" height="5.6" transform="translate(49.65 -23.98) rotate(22.07)"/><rect class="cls-9" x="113.23" y="84.45" width="1.35" height="5.6" transform="translate(149.9 -51.64) rotate(67.07)"/><rect class="cls-9" x="74.01" y="101.04" width="1.35" height="5.6" transform="translate(141.23 -5.39) rotate(67.07)"/><rect class="cls-9" x="101.92" y="112.36" width="1.35" height="5.6" transform="translate(241.94 181.27) rotate(157.07)"/><rect class="cls-9" x="85.33" y="73.14" width="1.35" height="5.6" transform="translate(194.79 112.38) rotate(157.07)"/><rect class="cls-9" x="113.36" y="100.75" width="1.35" height="5.6" transform="translate(252.84 36.8) rotate(112.07)"/><rect class="cls-9" x="73.89" y="84.75" width="1.35" height="5.6" transform="translate(183.71 51.35) rotate(112.07)"/></svg>