<svg id="Layer_1" data-name="Layer 1" xmlns="http://www.w3.org/2000/svg" xmlns:xlink="http://www.w3.org/1999/xlink" viewBox="0 0 1070 219"><defs><style>.cls-1{font-size:86.33px;font-family:FranklinGothic-Demi, Franklin Gothic Demi;font-weight:300;}.cls-1,.cls-4{fill:#1e2d4e;}.cls-2{letter-spacing:-0.01em;}.cls-3{fill:#be985f;}.cls-5{fill:url(#linear-gradient);}.cls-6{fill:url(#linear-gradient-2);}.cls-7{fill:#232323;}.cls-8{fill:#dedee0;}.cls-9{fill:url(#linear-gradient-3);}.cls-10{fill:url(#linear-gradient-4);}.cls-11{fill:#49474c;}.cls-12{fill:#fff;}</style><linearGradient id="linear-gradient" x1="129.58" y1="125.78" x2="199.91" y2="55.46" gradientUnits="userSpaceOnUse"><stop offset="0.01" stop-color="#ab8547"/><stop offset="1" stop-color="#f3d599"/></linearGradient><linearGradient id="linear-gradient-2" x1="193.32" y1="79.07" x2="193.32" y2="89.86" gradientTransform="translate(1.8 6.06)" gradientUnits="userSpaceOnUse"><stop offset="0" stop-color="#747474"/><stop offset="0.08" stop-color="gray"/><stop offset="0.23" stop-color="#9f9f9f"/><stop offset="0.42" stop-color="#d2d2d2"/><stop offset="0.48" stop-color="#e0e0e0"/><stop offset="0.68" stop-color="#aaabac"/><stop offset="0.94" stop-color="#6d6e71"/></linearGradient><linearGradient id="linear-gradient-3" x1="138.91" y1="91.11" x2="188.7" y2="91.11" gradientUnits="userSpaceOnUse"><stop offset="0.01" stop-color="#c4b293"/><stop offset="1" stop-color="#e9dabd"/></linearGradient><linearGradient id="linear-gradient-4" x1="139.71" y1="91.11" x2="187.9" y2="91.11" xlink:href="#linear-gradient"/></defs><text class="cls-1" transform="translate(335.28 137.53) scale(1.02 1)"><tspan class="cls-2">L</tspan><tspan x="42.87" y="0">UXE </tspan><tspan class="cls-3" x="221.47" y="0">OFFICE</tspan></text><rect class="cls-4" x="211.2" y="159.79" width="24.46" height="26.21" rx="3"/><path class="cls-4" d="M285.3,67.19H221A11.51,11.51,0,0,0,209.46,78.7v66.08A11.51,11.51,0,0,0,221,156.3H285.3a11.52,11.52,0,0,0,11.52-11.52V78.7A11.51,11.51,0,0,0,285.3,67.19Zm-7.7,69.89H228.67V86.41H277.6Z"/><path class="cls-5" d="M207.39,74.15V107.1a27,27,0,0,1-27,27H149.13a27,27,0,0,1-27-27V74.15a27,27,0,0,1,27-27h31.24A27,27,0,0,1,207.39,74.15Z"/><path class="cls-6" d="M193.24,85.12h1.63A2.14,2.14,0,0,1,197,87.26v6.51a2.14,2.14,0,0,1-2.14,2.14h-1.63a0,0,0,0,1,0,0V85.12A0,0,0,0,1,193.24,85.12Z" transform="translate(0.26 -0.55) rotate(0.16)"/><circle class="cls-4" cx="163.81" cy="91.11" r="31.09"/><circle class="cls-7" cx="163.81" cy="91.11" r="27.63"/><circle class="cls-8" cx="163.81" cy="91.11" r="25.69"/><circle class="cls-9" cx="163.81" cy="91.11" r="24.89"/><circle class="cls-10" cx="163.81" cy="91.11" r="24.1"/><circle class="cls-11" cx="163.81" cy="91.11" r="2.85"/><rect class="cls-11" x="158.39" y="79.83" width="1.97" height="13.26" transform="translate(-14.6 137.53) rotate(-44.84)"/><polygon class="cls-11" points="163.95 92.13 184.57 86.97 184.09 85.06 163.47 90.22 163.95 92.13"/><rect class="cls-12" x="163.53" y="67.01" width="1.35" height="5.6" transform="translate(0.2 -0.46) rotate(0.16)"/><rect class="cls-12" x="163.41" y="109.6" width="1.35" height="5.6" transform="matrix(1, 0, 0, 1, 0.32, -0.46)"/><rect class="cls-12" x="184.76" y="88.36" width="1.35" height="5.6" transform="translate(277.12 -94.01) rotate(90.16)"/><rect class="cls-12" x="142.17" y="88.24" width="1.35" height="5.6" transform="translate(234.3 -51.54) rotate(90.16)"/><rect class="cls-12" x="178.48" y="103.4" width="1.35" height="5.6" transform="translate(381.08 55.19) rotate(135.16)"/><rect class="cls-12" x="148.45" y="73.21" width="1.35" height="5.6" transform="translate(308.47 24.75) rotate(135.16)"/><rect class="cls-12" x="148.37" y="103.32" width="1.35" height="5.6" transform="translate(178.88 286.63) rotate(-134.84)"/><rect class="cls-12" x="178.57" y="73.29" width="1.35" height="5.6" transform="translate(251.67 256.85) rotate(-134.84)"/><rect class="cls-12" x="171.47" y="68.57" width="1.35" height="5.6" transform="translate(39.44 -59.46) rotate(22.07)"/><rect class="cls-12" x="155.47" y="108.04" width="1.35" height="5.6" transform="translate(53.1 -50.55) rotate(22.07)"/><rect class="cls-12" x="183.08" y="80.01" width="1.35" height="5.6" transform="translate(188.44 -118.69) rotate(67.07)"/><rect class="cls-12" x="143.86" y="96.6" width="1.35" height="5.6" transform="translate(179.78 -72.43) rotate(67.07)"/><rect class="cls-12" x="171.76" y="107.92" width="1.35" height="5.6" transform="translate(374.38 145.52) rotate(157.07)"/><rect class="cls-12" x="155.17" y="68.69" width="1.35" height="5.6" transform="translate(327.23 76.63) rotate(157.07)"/><rect class="cls-12" x="183.2" y="96.31" width="1.35" height="5.6" transform="translate(344.82 -34.05) rotate(112.07)"/><rect class="cls-12" x="143.74" y="80.3" width="1.35" height="5.6" transform="translate(275.69 -19.49) rotate(112.07)"/></svg>