<svg id="Layer_1" data-name="Layer 1" xmlns="http://www.w3.org/2000/svg" xmlns:xlink="http://www.w3.org/1999/xlink" viewBox="0 0 279 219"><defs><style>.cls-1{fill:#1e2d4e;}.cls-2{fill:url(#linear-gradient);}.cls-3{fill:url(#linear-gradient-2);}.cls-4{fill:url(#linear-gradient-3);}.cls-5{fill:url(#linear-gradient-4);}</style><linearGradient id="linear-gradient" x1="70" y1="65.5" x2="143.73" y2="65.5" gradientTransform="translate(77.62 -56.38) rotate(45)" gradientUnits="userSpaceOnUse"><stop offset="0.01" stop-color="#ab8547"/><stop offset="1" stop-color="#f3d599"/></linearGradient><linearGradient id="linear-gradient-2" x1="173.28" y1="80.04" x2="203.19" y2="50.13" gradientTransform="translate(101.15 -114.04) rotate(45)" xlink:href="#linear-gradient"/><linearGradient id="linear-gradient-3" x1="69.81" y1="146.64" x2="143.55" y2="146.64" gradientTransform="translate(134.93 -32.48) rotate(45)" xlink:href="#linear-gradient"/><linearGradient id="linear-gradient-4" x1="153.89" y1="180.82" x2="221.27" y2="113.44" gradientTransform="translate(158.98 -89.54) rotate(45)" xlink:href="#linear-gradient"/></defs><path class="cls-1" d="M208.79,106.64c-34.62,6.51-55.43,26.59-61.68,62-6.43-35.19-27-55.71-62.13-61.89,34.77-6.2,55.62-26.24,62.16-61.07C153.53,80.44,174.25,100.4,208.79,106.64Z"/><ellipse class="cls-2" cx="106.87" cy="65.5" rx="47.64" ry="21.15" transform="translate(-15.01 94.75) rotate(-45)"/><ellipse class="cls-3" cx="188.23" cy="65.09" rx="21.15" ry="47.64" transform="translate(9.11 152.16) rotate(-45)"/><ellipse class="cls-4" cx="106.68" cy="146.64" rx="21.15" ry="47.64" transform="translate(-72.44 118.38) rotate(-45)"/><ellipse class="cls-5" cx="187.58" cy="147.13" rx="47.64" ry="21.15" transform="translate(-49.1 175.73) rotate(-45)"/></svg>