<svg id="Layer_1" data-name="Layer 1" xmlns="http://www.w3.org/2000/svg" xmlns:xlink="http://www.w3.org/1999/xlink" viewBox="0 0 279 219"><defs><style>.cls-1{fill:none;}.cls-2{fill:url(#linear-gradient);}.cls-3{fill:#1e2d4e;}.cls-4{clip-path:url(#clip-path);}.cls-5{fill:#b9e8f2;}.cls-6{fill:url(#linear-gradient-2);}.cls-7{fill:url(#linear-gradient-3);}</style><linearGradient id="linear-gradient" x1="72.15" y1="136.56" x2="232.72" y2="71.68" gradientUnits="userSpaceOnUse"><stop offset="0.01" stop-color="#ab8547"/><stop offset="1" stop-color="#f3d599"/></linearGradient><clipPath id="clip-path"><path class="cls-1" d="M212.11,78.33c0,54.72-29.57,101.1-70.45,117-40.88-15.9-70.45-62.28-70.45-117a148.06,148.06,0,0,1,2.61-27.82,110.64,110.64,0,0,0,38.26-5.75,114,114,0,0,0,29.46-14.37c11.25,9.08,28.11,16.22,47.57,19.1a120,120,0,0,0,20.44,1.3A147.69,147.69,0,0,1,212.11,78.33Z"/></clipPath><linearGradient id="linear-gradient-2" x1="74.92" y1="73.14" x2="141.46" y2="73.14" gradientUnits="userSpaceOnUse"><stop offset="0.02" stop-color="#a77c45"/><stop offset="0.57" stop-color="#ffecb1"/><stop offset="1" stop-color="#cca061"/></linearGradient><linearGradient id="linear-gradient-3" x1="113.32" y1="110.38" x2="181.39" y2="110.38" gradientUnits="userSpaceOnUse"><stop offset="0.02" stop-color="#be985f"/><stop offset="0.48" stop-color="#f4f0ca"/><stop offset="0.99" stop-color="#9d7538"/></linearGradient></defs><path class="cls-2" d="M223.2,72.71c0,63.5-34.31,117.3-81.74,135.75C94,190,59.71,136.21,59.71,72.71a172,172,0,0,1,3-32.27c13.47.54,28.8-1.58,44.39-6.67A132.63,132.63,0,0,0,141.31,17.1c13.05,10.53,32.62,18.81,55.2,22.15a139.5,139.5,0,0,0,23.71,1.52A171.06,171.06,0,0,1,223.2,72.71Z"/><path class="cls-3" d="M212.11,78.33c0,54.72-29.57,101.1-70.45,117-40.88-15.9-70.45-62.28-70.45-117a148.06,148.06,0,0,1,2.61-27.82,110.64,110.64,0,0,0,38.26-5.75,114,114,0,0,0,29.46-14.37c11.25,9.08,28.11,16.22,47.57,19.1a120,120,0,0,0,20.44,1.3A147.69,147.69,0,0,1,212.11,78.33Z"/><g class="cls-4"><path class="cls-5" d="M83,98.14a4,4,0,1,1,4-4A4,4,0,0,1,83,98.14Zm0-6.66a2.62,2.62,0,1,0,2.61,2.62A2.62,2.62,0,0,0,83,91.48Z"/><path class="cls-5" d="M91.55,116.2a4,4,0,1,1,4-4A4,4,0,0,1,91.55,116.2Zm0-6.66a2.62,2.62,0,1,0,2.62,2.62A2.62,2.62,0,0,0,91.55,109.54Z"/><path class="cls-5" d="M100.11,106.69a4,4,0,1,1,4-4A4,4,0,0,1,100.11,106.69Zm0-6.65a2.62,2.62,0,1,0,2.61,2.61A2.62,2.62,0,0,0,100.11,100Z"/><path class="cls-5" d="M114.37,129.5a4,4,0,1,1,4-4A4,4,0,0,1,114.37,129.5Zm0-6.65a2.62,2.62,0,1,0,2.61,2.61A2.61,2.61,0,0,0,114.37,122.85Z"/><path class="cls-5" d="M135.28,180.83a4,4,0,1,1,4-4A4,4,0,0,1,135.28,180.83Zm0-6.65a2.62,2.62,0,1,0,2.61,2.61A2.62,2.62,0,0,0,135.28,174.18Z"/><path class="cls-5" d="M160,178.93a4,4,0,1,1,4-4A4,4,0,0,1,160,178.93Zm0-6.65a2.61,2.61,0,1,0,2.61,2.61A2.61,2.61,0,0,0,160,172.28Z"/><path class="cls-5" d="M155.24,165.62a4,4,0,1,1,4-4A4,4,0,0,1,155.24,165.62Zm0-6.65a2.62,2.62,0,1,0,2.61,2.61A2.62,2.62,0,0,0,155.24,159Z"/><path class="cls-5" d="M147.63,159a4,4,0,1,1,4-4A4,4,0,0,1,147.63,159Zm0-6.65a2.61,2.61,0,1,0,2.62,2.61A2.61,2.61,0,0,0,147.63,152.32Z"/><path class="cls-5" d="M174.25,119.05a4,4,0,1,1,4-4A4,4,0,0,1,174.25,119.05Zm0-6.65a2.61,2.61,0,1,0,2.61,2.61A2.62,2.62,0,0,0,174.25,112.4Z"/><path class="cls-5" d="M149.53,88.63a4,4,0,1,1,4-4A4,4,0,0,1,149.53,88.63Zm0-6.65a2.62,2.62,0,1,0,2.62,2.61A2.61,2.61,0,0,0,149.53,82Z"/><path class="cls-5" d="M170.45,73.42a4,4,0,1,1,4-4A4,4,0,0,1,170.45,73.42Zm0-6.65a2.62,2.62,0,1,0,2.61,2.62A2.62,2.62,0,0,0,170.45,66.77Z"/><path class="cls-5" d="M155.24,52.51a4,4,0,1,1,4-4A4,4,0,0,1,155.24,52.51Zm0-6.65a2.62,2.62,0,1,0,2.61,2.61A2.62,2.62,0,0,0,155.24,45.86Z"/><path class="cls-5" d="M196.11,62a4,4,0,1,1,4-4A4,4,0,0,1,196.11,62Zm0-6.65A2.61,2.61,0,1,0,198.72,58,2.61,2.61,0,0,0,196.11,55.37Z"/><path class="cls-5" d="M205.61,71.52a4,4,0,1,1,4-4A4,4,0,0,1,205.61,71.52Zm0-6.65a2.62,2.62,0,1,0,2.62,2.61A2.61,2.61,0,0,0,205.61,64.87Z"/><path class="cls-5" d="M182.8,153.27a4,4,0,1,1,4-4A4,4,0,0,1,182.8,153.27Zm0-6.66a2.62,2.62,0,1,0,2.62,2.62A2.62,2.62,0,0,0,182.8,146.61Z"/><path class="cls-5" d="M200.86,112.4a4,4,0,1,1,4-4A4,4,0,0,1,200.86,112.4Zm0-6.66a2.62,2.62,0,1,0,2.62,2.62A2.61,2.61,0,0,0,200.86,105.74Z"/><path class="cls-5" d="M120.07,178.93a4,4,0,1,1,4-4A4,4,0,0,1,120.07,178.93Zm0-6.65a2.61,2.61,0,1,0,2.61,2.61A2.61,2.61,0,0,0,120.07,172.28Z"/><polygon class="cls-5" points="120.31 171.56 118.88 171.56 118.88 169.02 93.22 145.26 93.22 127.2 82.29 117.15 82.29 97.42 83.71 97.42 83.71 116.53 94.64 126.58 94.64 144.64 120.31 168.4 120.31 171.56"/><rect class="cls-5" x="90.84" y="85.97" width="1.43" height="23.52"/><path class="cls-5" d="M128.51,185.8h-1.43v-16L99.62,143.67a.73.73,0,0,1-.22-.52V106h1.42v36.87L128.29,169a.73.73,0,0,1,.22.52Z"/><polygon class="cls-5" points="135.75 173.94 134.8 173.94 134.8 168.77 106.29 141.68 106.29 100.75 107.24 100.75 107.24 141.27 135.75 168.36 135.75 173.94"/><rect class="cls-5" x="134.8" y="180.12" width="0.95" height="10.46"/><polygon class="cls-5" points="143.83 195.41 142.88 195.41 142.88 165.92 111.04 134.84 111.7 134.15 143.83 165.52 143.83 195.41"/><polygon class="cls-5" points="144.31 155.64 141.08 155.64 114.76 129.17 115.77 128.16 141.67 154.22 144.31 154.22 144.31 155.64"/><rect class="cls-5" x="141.37" y="168.69" width="14.21" height="1.43" transform="translate(-75.97 150.26) rotate(-43.89)"/><polygon class="cls-5" points="151.67 192.47 150.25 192.47 150.25 178.84 156.25 173.79 157.17 174.88 151.67 179.5 151.67 192.47"/><rect class="cls-5" x="148.65" y="87.8" width="1.43" height="64.29"/><polygon class="cls-5" points="156.59 158.26 155.16 158.26 155.16 136.42 172.11 120.87 172.11 117.77 173.53 117.77 173.53 121.5 156.59 137.05 156.59 158.26"/><polygon class="cls-5" points="162.05 169.41 161.65 138.94 183.51 118.97 183.51 96.52 195.87 85.7 195.87 60.77 197.3 60.77 197.3 86.34 184.94 97.17 184.94 119.6 163.08 139.56 163.47 169.4 162.05 169.41"/><polygon class="cls-5" points="169.61 178.22 168.18 178.22 168.31 142.74 189.22 122.78 189.22 104.71 204.9 90.46 204.9 70.25 206.33 70.25 206.33 91.09 190.64 105.34 190.64 123.39 169.73 143.35 169.61 178.22"/><polygon class="cls-5" points="174.96 172.52 174.78 145.59 194.92 127.03 194.92 117.09 200.75 111.18 201.76 112.18 196.35 117.68 196.35 127.66 176.21 146.21 176.39 172.51 174.96 172.52"/><rect class="cls-5" x="181.65" y="152.52" width="1.43" height="11.18"/><polygon class="cls-5" points="159.28 108.36 157.85 108.36 157.85 84.9 147.4 74.92 147.4 34.36 148.82 34.36 148.82 74.31 159.28 84.29 159.28 108.36"/><polygon class="cls-5" points="165.06 100.75 163.64 100.75 163.64 80.16 155.16 71.65 155.16 65.77 162.6 58.24 162.6 43.25 164.03 43.25 164.03 58.83 156.59 66.35 156.59 71.06 165.06 79.57 165.06 100.75"/><rect class="cls-5" x="170.21" y="45.15" width="1.43" height="21.45"/><polygon class="cls-5" points="171.63 91.89 170.21 91.89 170.21 83.54 178.1 75.48 178.1 48.47 179.53 48.47 179.53 76.06 171.63 84.12 171.63 91.89"/><polygon class="cls-5" points="179.59 89.77 178.58 88.76 184.47 82.87 184.47 48.95 185.89 48.95 185.89 83.46 179.59 89.77"/></g><path class="cls-6" d="M141.46,33.5v69.37l-10,9.91S125.3,96.47,112,106A67.25,67.25,0,0,0,100.35,93.5,68.26,68.26,0,0,0,74.92,80.32q.48-13.36,1-26.73S120.54,53.23,141.46,33.5Z"/><path class="cls-7" d="M181.39,88.23a5.33,5.33,0,0,1-1.47,3.68l-35.85,38.16-7.36,7.84-7.83-7.37-13.87-13a5.37,5.37,0,1,1,7.36-7.83l13.87,13,35.85-38.15a5.35,5.35,0,0,1,7.59-.24A5.3,5.3,0,0,1,181.39,88.23Z"/></svg>