<svg id="Layer_1" data-name="Layer 1" xmlns="http://www.w3.org/2000/svg" xmlns:xlink="http://www.w3.org/1999/xlink" viewBox="0 0 1070 219"><defs><style>.cls-1{fill:none;}.cls-2{font-size:86.33px;font-family:FranklinGothic-Demi, Franklin Gothic Demi;font-weight:300;}.cls-2,.cls-6{fill:#1e2d4e;}.cls-3{letter-spacing:-0.01em;}.cls-4{fill:#be985f;}.cls-5{fill:url(#linear-gradient);}.cls-7{clip-path:url(#clip-path);}.cls-8{fill:#b9e8f2;}.cls-9{fill:url(#linear-gradient-2);}.cls-10{fill:url(#linear-gradient-3);}</style><linearGradient id="linear-gradient" x1="139.15" y1="129.56" x2="299.72" y2="64.68" gradientUnits="userSpaceOnUse"><stop offset="0.01" stop-color="#ab8547"/><stop offset="1" stop-color="#f3d599"/></linearGradient><clipPath id="clip-path"><path class="cls-1" d="M279.11,71.33c0,54.72-29.57,101.1-70.45,117-40.88-15.9-70.45-62.28-70.45-117a148.06,148.06,0,0,1,2.61-27.82,110.64,110.64,0,0,0,38.26-5.75,114,114,0,0,0,29.46-14.37c11.25,9.08,28.11,16.22,47.57,19.1a120,120,0,0,0,20.44,1.3A147.69,147.69,0,0,1,279.11,71.33Z"/></clipPath><linearGradient id="linear-gradient-2" x1="141.92" y1="66.14" x2="208.46" y2="66.14" gradientUnits="userSpaceOnUse"><stop offset="0.02" stop-color="#a77c45"/><stop offset="0.57" stop-color="#ffecb1"/><stop offset="1" stop-color="#cca061"/></linearGradient><linearGradient id="linear-gradient-3" x1="180.32" y1="103.38" x2="248.39" y2="103.38" gradientUnits="userSpaceOnUse"><stop offset="0.02" stop-color="#be985f"/><stop offset="0.48" stop-color="#f4f0ca"/><stop offset="0.99" stop-color="#9d7538"/></linearGradient></defs><text class="cls-2" transform="translate(335.28 137.53) scale(1.02 1)"><tspan class="cls-3">L</tspan><tspan x="42.87" y="0">UXE </tspan><tspan class="cls-4" x="221.47" y="0">OFFICE</tspan></text><path class="cls-5" d="M290.2,65.71c0,63.5-34.31,117.3-81.74,135.75C161,183,126.71,129.21,126.71,65.71a172,172,0,0,1,3-32.27c13.47.54,28.8-1.58,44.39-6.67A132.63,132.63,0,0,0,208.31,10.1c13.05,10.53,32.62,18.81,55.2,22.15a139.5,139.5,0,0,0,23.71,1.52A171.06,171.06,0,0,1,290.2,65.71Z"/><path class="cls-6" d="M279.11,71.33c0,54.72-29.57,101.1-70.45,117-40.88-15.9-70.45-62.28-70.45-117a148.06,148.06,0,0,1,2.61-27.82,110.64,110.64,0,0,0,38.26-5.75,114,114,0,0,0,29.46-14.37c11.25,9.08,28.11,16.22,47.57,19.1a120,120,0,0,0,20.44,1.3A147.69,147.69,0,0,1,279.11,71.33Z"/><g class="cls-7"><path class="cls-8" d="M150,91.14a4,4,0,1,1,4-4A4,4,0,0,1,150,91.14Zm0-6.66a2.62,2.62,0,1,0,2.61,2.62A2.62,2.62,0,0,0,150,84.48Z"/><path class="cls-8" d="M158.55,109.2a4,4,0,1,1,4-4A4,4,0,0,1,158.55,109.2Zm0-6.66a2.62,2.62,0,1,0,2.62,2.62A2.62,2.62,0,0,0,158.55,102.54Z"/><path class="cls-8" d="M167.11,99.69a4,4,0,1,1,4-4A4,4,0,0,1,167.11,99.69Zm0-6.65a2.62,2.62,0,1,0,2.61,2.61A2.62,2.62,0,0,0,167.11,93Z"/><path class="cls-8" d="M181.37,122.5a4,4,0,1,1,4-4A4,4,0,0,1,181.37,122.5Zm0-6.65a2.62,2.62,0,1,0,2.61,2.61A2.61,2.61,0,0,0,181.37,115.85Z"/><path class="cls-8" d="M202.28,173.83a4,4,0,1,1,4-4A4,4,0,0,1,202.28,173.83Zm0-6.65a2.62,2.62,0,1,0,2.61,2.61A2.62,2.62,0,0,0,202.28,167.18Z"/><path class="cls-8" d="M227,171.93a4,4,0,1,1,4-4A4,4,0,0,1,227,171.93Zm0-6.65a2.61,2.61,0,1,0,2.61,2.61A2.61,2.61,0,0,0,227,165.28Z"/><path class="cls-8" d="M222.24,158.62a4,4,0,1,1,4-4A4,4,0,0,1,222.24,158.62Zm0-6.65a2.62,2.62,0,1,0,2.61,2.61A2.62,2.62,0,0,0,222.24,152Z"/><path class="cls-8" d="M214.63,152a4,4,0,1,1,4-4A4,4,0,0,1,214.63,152Zm0-6.65a2.61,2.61,0,1,0,2.62,2.61A2.61,2.61,0,0,0,214.63,145.32Z"/><path class="cls-8" d="M241.25,112.05a4,4,0,1,1,4-4A4,4,0,0,1,241.25,112.05Zm0-6.65a2.61,2.61,0,1,0,2.61,2.61A2.62,2.62,0,0,0,241.25,105.4Z"/><path class="cls-8" d="M216.53,81.63a4,4,0,1,1,4-4A4,4,0,0,1,216.53,81.63Zm0-6.65a2.62,2.62,0,1,0,2.62,2.61A2.61,2.61,0,0,0,216.53,75Z"/><path class="cls-8" d="M237.45,66.42a4,4,0,1,1,4-4A4,4,0,0,1,237.45,66.42Zm0-6.65a2.62,2.62,0,1,0,2.61,2.62A2.62,2.62,0,0,0,237.45,59.77Z"/><path class="cls-8" d="M222.24,45.51a4,4,0,1,1,4-4A4,4,0,0,1,222.24,45.51Zm0-6.65a2.62,2.62,0,1,0,2.61,2.61A2.62,2.62,0,0,0,222.24,38.86Z"/><path class="cls-8" d="M263.11,55a4,4,0,1,1,4-4A4,4,0,0,1,263.11,55Zm0-6.65A2.61,2.61,0,1,0,265.72,51,2.61,2.61,0,0,0,263.11,48.37Z"/><path class="cls-8" d="M272.61,64.52a4,4,0,1,1,4-4A4,4,0,0,1,272.61,64.52Zm0-6.65a2.62,2.62,0,1,0,2.62,2.61A2.61,2.61,0,0,0,272.61,57.87Z"/><path class="cls-8" d="M249.8,146.27a4,4,0,1,1,4-4A4,4,0,0,1,249.8,146.27Zm0-6.66a2.62,2.62,0,1,0,2.62,2.62A2.62,2.62,0,0,0,249.8,139.61Z"/><path class="cls-8" d="M267.86,105.4a4,4,0,1,1,4-4A4,4,0,0,1,267.86,105.4Zm0-6.66a2.62,2.62,0,1,0,2.62,2.62A2.61,2.61,0,0,0,267.86,98.74Z"/><path class="cls-8" d="M187.07,171.93a4,4,0,1,1,4-4A4,4,0,0,1,187.07,171.93Zm0-6.65a2.61,2.61,0,1,0,2.61,2.61A2.61,2.61,0,0,0,187.07,165.28Z"/><polygon class="cls-8" points="187.31 164.56 185.88 164.56 185.88 162.02 160.22 138.26 160.22 120.2 149.29 110.15 149.29 90.42 150.71 90.42 150.71 109.53 161.64 119.58 161.64 137.64 187.31 161.4 187.31 164.56"/><rect class="cls-8" x="157.84" y="78.97" width="1.43" height="23.52"/><path class="cls-8" d="M195.51,178.8h-1.43v-16l-27.46-26.13a.73.73,0,0,1-.22-.52V99h1.42v36.87L195.29,162a.73.73,0,0,1,.22.52Z"/><polygon class="cls-8" points="202.75 166.94 201.8 166.94 201.8 161.77 173.29 134.68 173.29 93.75 174.24 93.75 174.24 134.27 202.75 161.36 202.75 166.94"/><rect class="cls-8" x="201.8" y="173.12" width="0.95" height="10.46"/><polygon class="cls-8" points="210.83 188.41 209.88 188.41 209.88 158.92 178.04 127.83 178.7 127.15 210.83 158.52 210.83 188.41"/><polygon class="cls-8" points="211.31 148.64 208.08 148.64 181.76 122.17 182.77 121.16 208.67 147.22 211.31 147.22 211.31 148.64"/><rect class="cls-8" x="208.37" y="161.69" width="14.21" height="1.43" transform="translate(-52.4 194.76) rotate(-43.89)"/><polygon class="cls-8" points="218.67 185.47 217.25 185.47 217.25 171.84 223.25 166.79 224.17 167.88 218.67 172.5 218.67 185.47"/><rect class="cls-8" x="215.65" y="80.8" width="1.43" height="64.29"/><polygon class="cls-8" points="223.59 151.26 222.16 151.26 222.16 129.42 239.11 113.87 239.11 110.77 240.53 110.77 240.53 114.5 223.59 130.05 223.59 151.26"/><polygon class="cls-8" points="229.05 162.41 228.65 131.94 250.51 111.97 250.51 89.52 262.87 78.7 262.87 53.77 264.3 53.77 264.3 79.34 251.94 90.17 251.94 112.6 230.08 132.56 230.47 162.4 229.05 162.41"/><polygon class="cls-8" points="236.61 171.22 235.18 171.22 235.31 135.74 256.22 115.78 256.22 97.71 271.9 83.46 271.9 63.25 273.33 63.25 273.33 84.09 257.64 98.34 257.64 116.39 236.73 136.35 236.61 171.22"/><polygon class="cls-8" points="241.96 165.52 241.78 138.59 261.92 120.03 261.92 110.09 267.75 104.18 268.76 105.18 263.35 110.68 263.35 120.66 243.21 139.21 243.39 165.51 241.96 165.52"/><rect class="cls-8" x="248.65" y="145.52" width="1.43" height="11.18"/><polygon class="cls-8" points="226.28 101.36 224.85 101.36 224.85 77.9 214.4 67.92 214.4 27.36 215.82 27.36 215.82 67.31 226.28 77.29 226.28 101.36"/><polygon class="cls-8" points="232.06 93.75 230.64 93.75 230.64 73.16 222.16 64.65 222.16 58.77 229.6 51.24 229.6 36.25 231.03 36.25 231.03 51.83 223.59 59.35 223.59 64.06 232.06 72.57 232.06 93.75"/><rect class="cls-8" x="237.21" y="38.15" width="1.43" height="21.45"/><polygon class="cls-8" points="238.63 84.89 237.21 84.89 237.21 76.54 245.1 68.48 245.1 41.47 246.53 41.47 246.53 69.06 238.63 77.12 238.63 84.89"/><polygon class="cls-8" points="246.59 82.77 245.58 81.76 251.47 75.87 251.47 41.95 252.89 41.95 252.89 76.46 246.59 82.77"/></g><path class="cls-9" d="M208.46,26.5V95.87l-10,9.91S192.3,89.47,179,99A67.25,67.25,0,0,0,167.35,86.5a68.26,68.26,0,0,0-25.43-13.18q.48-13.36,1-26.73S187.54,46.23,208.46,26.5Z"/><path class="cls-10" d="M248.39,81.23a5.33,5.33,0,0,1-1.47,3.68l-35.85,38.16-7.36,7.84-7.83-7.37-13.87-13a5.37,5.37,0,1,1,7.36-7.83l13.87,13,35.85-38.15a5.35,5.35,0,0,1,7.59-.24A5.3,5.3,0,0,1,248.39,81.23Z"/></svg>